<svg width="26" height="32" viewBox="0 0 26 32" fill="none" xmlns="http://www.w3.org/2000/svg">
<path fill-rule="evenodd" clip-rule="evenodd" d="M24.1197 23.1111H14.188V30.2222H24.1197V23.1111ZM24.1197 1.77778H14.188V16H24.1197V1.77778ZM8.51282 16H1.4188V30.2222H8.51282V16ZM8.51282 1.77778H1.4188V8.88889H8.51282V1.77778ZM14.188 0C13.4044 0 12.7692 0.795947 12.7692 1.77778V16C12.7692 16.9819 13.4044 17.7778 14.188 17.7778H24.1197C24.9033 17.7778 25.5385 16.9819 25.5385 16V1.77778C25.5385 0.795947 24.9033 0 24.1197 0H14.188ZM14.188 21.3333C13.4044 21.3333 12.7692 22.1292 12.7692 23.1111V30.2222C12.7692 31.2041 13.4044 32 14.188 32H24.1197C24.9033 32 25.5385 31.2041 25.5385 30.2222V23.1111C25.5385 22.1292 24.9033 21.3333 24.1197 21.3333H14.188ZM0 16C0 15.0182 0.635227 14.2222 1.4188 14.2222H8.51282C9.2964 14.2222 9.93162 15.0182 9.93162 16V30.2222C9.93162 31.2041 9.2964 32 8.51282 32H1.4188C0.635227 32 0 31.2041 0 30.2222V16ZM1.4188 0C0.635227 0 0 0.795947 0 1.77778V8.88889C0 9.87072 0.635227 10.6667 1.4188 10.6667H8.51282C9.2964 10.6667 9.93162 9.87072 9.93162 8.88889V1.77778C9.93162 0.795947 9.2964 0 8.51282 0H1.4188Z" fill="#5221E6"/>
</svg>
